<svg width="12" height="12" viewBox="0 0 12 12" fill="none" xmlns="http://www.w3.org/2000/svg">
<path d="M9.43947 4.35941L9.48921 4.36009C9.67374 4.37534 9.8152 4.52858 9.82499 4.71303L9.82024 4.81587L9.663 6.74149L9.49804 8.62068C9.46314 8.99583 9.4319 9.31225 9.40494 9.56133C9.31123 10.4294 8.74774 10.9662 7.8983 10.9821C6.57469 11.0065 5.30238 11.0063 4.06686 10.9795C3.24199 10.9622 2.68683 10.4196 2.59477 9.56485L2.53115 8.93508L2.41997 7.71351L2.30608 6.37303L2.17586 4.76394C2.15967 4.55749 2.30976 4.37668 2.51107 4.36008C2.69562 4.34487 2.85915 4.47292 2.89759 4.65339L2.91255 4.80087L3.03483 6.30936L3.16834 7.87294C3.22823 8.54981 3.28017 9.09759 3.32173 9.4824C3.37419 9.96951 3.63069 10.2202 4.08206 10.2297C5.30793 10.2562 6.57074 10.2564 7.88505 10.2322C8.36385 10.2232 8.62442 9.97497 8.678 9.47868L8.74135 8.85229C8.75989 8.65925 8.77971 8.44614 8.80067 8.21464L8.93432 6.6769L9.0953 4.70375C9.11018 4.51451 9.25961 4.36945 9.43947 4.35941ZM1.8657 3.49459C1.66373 3.49459 1.5 3.32669 1.5 3.11958C1.5 2.92972 1.63758 2.77282 1.81607 2.74799L1.8657 2.74456H3.45886C3.64818 2.74456 3.81392 2.61964 3.87321 2.43965L3.88772 2.38407L4.01152 1.75266C4.12056 1.33448 4.4746 1.03675 4.8895 1.00317L4.96796 1H7.03194C7.45373 1 7.82617 1.27314 7.96955 1.69519L7.9937 1.77604L8.11216 2.38392C8.14935 2.57436 8.30126 2.7166 8.48504 2.74089L8.54104 2.74456H10.1343C10.3363 2.74456 10.5 2.91246 10.5 3.11958C10.5 3.30943 10.3624 3.46634 10.1839 3.49117L10.1343 3.49459H1.8657ZM7.03194 1.75003H4.96796C4.86535 1.75003 4.77415 1.81161 4.73626 1.88901L4.72341 1.92302L4.6049 2.53119C4.5904 2.60542 4.56939 2.6769 4.54256 2.74506L7.4574 2.74515C7.44065 2.70263 7.42617 2.65881 7.41412 2.61384L7.39498 2.53104L7.28181 1.9464C7.25536 1.84496 7.17367 1.77069 7.07511 1.75371L7.03194 1.75003Z" fill="#FF7B00"/>
</svg>
